<mxfile host="app.diagrams.net" modified="2024-06-07T01:53:00.323Z" agent="Mozilla/5.0 (Windows NT 10.0; Win64; x64) AppleWebKit/537.36 (KHTML, like Gecko) Chrome/125.0.0.0 Safari/537.36" version="24.4.14" etag="rrNEEtadLIBC9Ax5KcOb" type="github">
  <diagram name="第 1 页" id="QLZgZE18MM_sOUj3BSq4">
    <mxGraphModel>
      <root>
        <mxCell id="0" />
        <mxCell id="1" parent="0" />
      </root>
    </mxGraphModel>
  </diagram>
</mxfile>
